HIERARCHY
ROOT Hips
{
	OFFSET -3.958830 18.904000 13.208200
	CHANNELS 6 Xposition Yposition Zposition Zrotation Yrotation Xrotation 
	JOINT LHipJoint
	{
		OFFSET 0.000000 0.000000 0.000000
		CHANNELS 3 Zrotation Yrotation Xrotation
		JOINT LeftUpLeg
		{
			OFFSET 1.800000 -1.400000 0.085000
			CHANNELS 3 Zrotation Yrotation Xrotation
			JOINT LeftLeg
			{
				OFFSET 2.215000 -6.000000 0.000000
				CHANNELS 3 Zrotation Yrotation Xrotation
				JOINT LeftFoot
				{
					OFFSET 2.500000 -6.900000 0.000000
					CHANNELS 3 Zrotation Yrotation Xrotation
					JOINT LeftToeBase
					{
						OFFSET 0.200000 -0.500000 1.950000
						CHANNELS 3 Zrotation Yrotation Xrotation
						End Site
						{
							OFFSET 0.000000 0.000000 0.000000
						}
					}
				}
			}
		}
	}
	JOINT RHipJoint
	{
		OFFSET 0.000000 0.000000 0.000000
		CHANNELS 3 Zrotation Yrotation Xrotation
		JOINT RightUpLeg
		{
			OFFSET -1.800000 -1.400000 0.085000
			CHANNELS 3 Zrotation Yrotation Xrotation
			JOINT RightLeg
			{
				OFFSET -2.215000 -6.000000 0.000000
				CHANNELS 3 Zrotation Yrotation Xrotation
				JOINT RightFoot
				{
					OFFSET -2.500000 -6.900000 0.000000
					CHANNELS 3 Zrotation Yrotation Xrotation
					JOINT RightToeBase
					{
						OFFSET -0.200000 -0.500000 1.950000
						CHANNELS 3 Zrotation Yrotation Xrotation
						End Site
						{
							OFFSET 0.000000 0.000000 0.000000
						}
					}
				}
			}
		}
	}
	JOINT LowerBack
	{
		OFFSET 0.000000 0.000000 0.000000
		CHANNELS 3 Zrotation Yrotation Xrotation
		JOINT Spine
		{
			OFFSET -0.087000 1.940000 -0.288900
			CHANNELS 3 Zrotation Yrotation Xrotation
			JOINT Spine1
			{
				OFFSET 0.000000 1.950000 0.060000
				CHANNELS 3 Zrotation Yrotation Xrotation
				JOINT Neck
				{
					OFFSET 0.000000 0.000000 0.000000
					CHANNELS 3 Zrotation Yrotation Xrotation
					JOINT Neck1
					{
						OFFSET 0.000000 1.600000 0.340000
						CHANNELS 3 Zrotation Yrotation Xrotation
						JOINT Head
						{
							OFFSET 0.000000 1.667000 -0.240000
							CHANNELS 3 Zrotation Yrotation Xrotation
							End Site
							{
								OFFSET 0.000000 0.000000 0.000000
							}
						}
					}
				}
				JOINT LeftShoulder
				{
					OFFSET 0.000000 0.000000 0.000000
					CHANNELS 3 Zrotation Yrotation Xrotation
					JOINT LeftArm
					{
						OFFSET 2.700000 1.550000 -0.730000
						CHANNELS 3 Zrotation Yrotation Xrotation
						JOINT LeftForeArm
						{
							OFFSET 5.450000 0.000000 0.000000
							CHANNELS 3 Zrotation Yrotation Xrotation
							JOINT LeftHand
							{
								OFFSET 3.450000 0.000000 0.000000
								CHANNELS 3 Zrotation Yrotation Xrotation
								JOINT LeftHandIndex1
								{
									OFFSET 0.750000 0.000000 0.000000
									CHANNELS 3 Zrotation Yrotation Xrotation
									End Site
									{
										OFFSET 0.000000 0.000000 0.000000
									}
								}
							}
						}
					}
				}
				JOINT RightShoulder
				{
					OFFSET 0.000000 0.000000 0.000000
					CHANNELS 3 Zrotation Yrotation Xrotation
					JOINT RightArm
					{
						OFFSET -2.700000 1.550000 -0.730000
						CHANNELS 3 Zrotation Yrotation Xrotation
						JOINT RightForeArm
						{
							OFFSET -5.450000 0.000000 0.000000
							CHANNELS 3 Zrotation Yrotation Xrotation
							JOINT RightHand
							{
								OFFSET -3.450000 0.000000 0.000000
								CHANNELS 3 Zrotation Yrotation Xrotation
								JOINT RightHandIndex1
								{
									OFFSET -0.750000 0.000000 0.000000
									CHANNELS 3 Zrotation Yrotation Xrotation
									End Site
									{
										OFFSET 0.000000 0.000000 0.000000
									}
								}
							}
						}
					}
				}
			}
		}
	}
}
MOTION
Frames: 8
Frame Time: 0.016667
-0.011310 17.158410 -6.544090 -4.315311 -40.511065 -3.284064 -15.065173 10.600632 5.260311 27.833665 -6.463106 -14.279352 -40.749751 13.331921 13.013329 0.370567 9.810725 1.050500 0.502900 0.423810 0.790340 18.668504 -10.400131 1.955631 -3.533982 -1.065564 -3.777684 5.371901 -5.704052 12.703349 -0.464397 -4.481722 2.615290 0.513740 0.265730 0.565450 -5.309544 0.039627 -8.029764 15.143973 3.761870 13.357022 19.865901 -1.211314 35.384682 -17.636770 8.202223 -14.155087 13.604671 2.440326 35.621038 -17.926330 18.959480 -11.759190 22.976676 -23.501136 9.727855 85.745787 -53.628876 -155.587595 6.617351 -2.986238 -0.612801 0.467323 4.188570 0.028490 0.711110 -0.000960 -0.055260 10.262036 18.544077 7.046273 45.622091 41.820345 -4.920641 -126.585618 32.215029 -89.249521 1.675756 -1.961896 -0.152710 0.058960 -0.038680 -0.371280 
-0.008370 17.147310 -6.529700 -4.736923 -40.951745 -2.834696 -15.044023 10.439203 5.339209 28.609372 -6.603268 -14.141704 -41.358646 13.218968 12.481432 0.409350 9.882488 1.051073 0.460790 0.372170 0.759600 18.694563 -10.470429 1.959163 -3.506037 -1.119975 -3.961949 5.567266 -5.811777 12.863059 -0.446382 -4.525346 2.613189 0.484980 0.303800 0.568540 -5.466702 0.327980 -8.156233 15.967447 3.640819 13.335755 19.601021 -1.466187 34.777640 -17.606910 8.327520 -14.351202 13.853735 2.441120 35.345168 -17.987210 19.103460 -10.657140 23.480131 -23.764940 9.295259 84.217809 -53.632771 -155.322195 7.015524 -1.479344 -0.483819 0.499884 4.156376 0.002090 0.739450 -0.031250 -0.052440 9.915309 18.175402 7.069300 46.438627 41.381135 -4.300618 -128.064028 31.763644 -91.122431 1.682450 -1.985271 -0.162840 0.055090 -0.025020 -0.361480 
-0.003500 17.137460 -6.509990 -5.681837 -40.817234 -2.634838 -14.769723 10.089853 5.682562 29.714811 -6.937709 -13.660151 -41.959905 13.022666 12.056446 0.419026 9.857744 1.093138 0.431930 0.333150 0.728680 18.872338 -11.138354 2.396570 -3.563342 -1.384075 -4.006796 6.125480 -6.049825 12.815343 -0.484903 -4.644196 2.574771 0.451810 0.322930 0.569220 -6.109081 1.683079 -9.921315 19.062601 2.934245 19.737279 18.245249 -1.225939 28.278700 -17.811986 8.389504 -17.958375 14.744139 1.171596 39.411724 -18.056410 18.803560 -9.792140 23.461367 -23.660334 6.146076 85.381776 -57.426609 -156.685828 9.526309 0.289593 -0.105150 -1.964290 3.291371 -0.004700 0.739650 -0.040880 -0.037440 9.919717 15.389177 6.329627 50.070281 40.805353 -1.690849 -131.607827 32.198273 -94.609163 1.828366 -1.954773 -0.162660 0.048440 -0.025950 -0.343630 
-0.003890 17.121310 -6.487210 -5.483401 -44.569378 -1.521921 -15.381546 11.383368 5.799567 30.585644 -6.219548 -14.106007 -42.828995 13.068839 10.750488 0.560024 10.209508 0.982908 0.379070 0.277670 0.685060 18.459758 -9.215788 1.647917 -3.734383 -1.122818 -3.810030 6.556086 -5.868441 13.106561 -0.329721 -4.295506 2.702671 0.417320 0.355920 0.563850 -4.379653 -3.737364 -7.974729 14.192184 -2.599315 13.871417 14.640604 -6.713257 23.516673 -20.389217 7.689850 -7.393883 6.084434 4.212299 38.706270 -18.062370 19.177590 -8.866570 25.477631 -36.194672 -23.863531 -19.839312 -54.280124 18.987432 -1.012779 3.235320 0.365086 -4.564644 3.482430 -0.032330 0.761050 -0.072210 -0.041980 9.757919 33.391280 21.025815 52.196101 35.790523 -0.704945 -132.568464 31.203381 -97.256101 1.721871 -1.923010 -0.171400 0.042570 -0.004020 -0.332340 
-0.012210 17.106510 -6.465870 -5.650397 -45.638555 -0.816558 -15.461208 11.298304 5.794181 30.871672 -6.083904 -14.077620 -43.342140 13.000443 10.182786 0.607324 10.231263 0.996740 0.355600 0.250320 0.652820 18.413695 -9.152345 1.576848 -4.023311 -1.116735 -4.202185 7.162156 -6.035676 13.229664 -0.317393 -4.327756 2.700060 0.399140 0.377020 0.555980 -4.286275 -3.663662 -7.826403 14.199923 -2.284916 12.586031 14.551476 -6.547544 23.396225 -19.564201 7.040161 -7.174512 5.348192 4.563955 38.084028 -17.525160 19.222120 -7.857400 25.343373 -35.131047 -22.734546 -19.092799 -54.208720 20.326525 -3.557185 1.480718 0.924087 -4.519199 3.450957 -0.047780 0.763510 -0.092620 -0.032300 8.955674 32.755546 20.611336 53.544035 35.512957 0.584888 -133.360504 30.541460 -97.926961 1.724669 -1.959810 -0.175330 0.034850 -0.003450 -0.316250 
-0.016070 17.102060 -6.449060 -5.586783 -46.431783 -0.325549 -15.491653 11.303286 5.768499 30.759823 -5.933020 -14.137858 -43.357303 13.103176 10.155470 0.672586 10.205690 1.017594 0.329540 0.224080 0.613050 18.382523 -9.161086 1.551291 -4.364465 -1.053326 -4.834628 7.559557 -6.150466 13.504447 -0.300810 -4.320558 2.699729 0.363920 0.387590 0.561790 -4.233680 -3.611883 -7.772671 14.196902 -2.037736 11.726388 14.593277 -6.366742 22.906108 -18.839565 6.219360 -7.242022 4.206250 4.867393 38.241245 -16.954140 19.022560 -6.691340 23.877693 -34.790544 -21.437958 -18.710224 -54.554606 21.191165 -4.941300 0.873091 1.202958 -4.510441 3.436863 -0.076650 0.755050 -0.101760 -0.026190 9.459574 32.405371 20.463715 53.791320 35.171732 1.170785 -133.707441 30.271419 -97.783915 1.756939 -1.984336 -0.149000 0.009540 0.001760 -0.285520 
-0.021520 17.103470 -6.433750 -5.670799 -46.419863 -0.032709 -15.476376 11.333310 5.709273 30.429839 -5.893208 -14.439848 -42.733538 13.268012 10.733224 0.678958 10.145172 1.033079 0.329940 0.225960 0.590420 18.381984 -9.210650 1.577376 -4.616273 -1.077628 -5.003456 8.089978 -6.281702 13.436917 -0.302842 -4.345610 2.692897 0.353110 0.384980 0.561390 -4.256087 -3.541158 -7.749953 14.537417 -1.958453 11.228743 14.625580 -6.335250 22.576727 -18.528200 5.742812 -7.584137 3.573139 5.108194 38.202384 -16.337220 18.729360 -6.190160 23.158668 -35.382972 -20.856787 -18.343141 -54.190303 21.264252 -5.985773 1.056124 1.300556 -4.520478 3.437097 -0.083690 0.741550 -0.104640 -0.018300 9.740341 32.954397 20.736100 53.726442 34.789618 0.560153 -134.251642 29.155350 -97.303872 1.766594 -2.003076 -0.131660 -0.006220 0.000060 -0.269920 
-0.021780 17.106030 -6.424580 -5.991590 -46.578761 0.211521 -15.453456 11.362175 5.623310 30.080511 -5.800034 -14.563136 -41.842530 13.426660 11.392096 0.656547 10.072815 1.047551 0.353240 0.253440 0.594220 18.388687 -9.291523 1.598872 -4.623077 -1.091689 -5.251386 8.379372 -6.450039 13.866259 -0.321996 -4.374669 2.683227 0.360530 0.371730 0.561990 -4.316552 -3.410553 -7.706114 15.051671 -2.007808 11.020166 14.218527 -6.419331 22.481292 -18.129677 5.375358 -7.824527 3.161499 5.558972 38.083574 -16.052290 18.724380 -6.603450 23.014849 -35.490400 -20.221486 -17.949008 -53.777930 21.270169 -6.490705 0.841096 1.356514 -4.523009 3.407794 -0.071340 0.724000 -0.088520 -0.005330 9.247692 33.061363 20.587288 54.187204 34.864743 0.609245 -134.033424 29.134970 -97.138878 1.767596 -1.998444 -0.119620 -0.006820 -0.013260 -0.264470 
